<?xml version="1.0" encoding="UTF-8" standalone="no"?>
<!-- Created with Inkscape (http://www.inkscape.org/) -->

<svg
   width="512"
   height="512"
   viewBox="0 0 512 512"
   version="1.1"
   id="svg1"
   xml:space="preserve"
   inkscape:version="1.4.4 (dcaf3e7d9e, 2026-05-05)"
   sodipodi:docname="metaquest3.svg"
   xmlns:inkscape="http://www.inkscape.org/namespaces/inkscape"
   xmlns:sodipodi="http://sodipodi.sourceforge.net/DTD/sodipodi-0.dtd"
   xmlns="http://www.w3.org/2000/svg"
   xmlns:svg="http://www.w3.org/2000/svg"><sodipodi:namedview
     id="namedview1"
     pagecolor="#ffffff"
     bordercolor="#000000"
     borderopacity="0.25"
     inkscape:showpageshadow="2"
     inkscape:pageopacity="0.0"
     inkscape:pagecheckerboard="0"
     inkscape:deskcolor="#d1d1d1"
     inkscape:document-units="px"
     inkscape:zoom="1.794922"
     inkscape:cx="328.7051"
     inkscape:cy="294.9989"
     inkscape:window-width="2560"
     inkscape:window-height="1416"
     inkscape:window-x="0"
     inkscape:window-y="0"
     inkscape:window-maximized="1"
     inkscape:current-layer="layer1" /><defs
     id="defs1" /><g
     inkscape:label="Katman 1"
     inkscape:groupmode="layer"
     id="layer1"><path
       id="path1"
       style="fill:#000000;stroke-width:3.72242"
       d="m 237.27734,73.685547 -18.18945,0.130859 -3.875,3.460938 -3.875,3.460937 -1.80273,13.355469 c -0.44852,17.29818 -0.85982,34.71095 -0.91602,38.69141 l -0.10156,7.23437 -5.67188,0.24024 C 117.08696,143.9108 79.898173,158.92126 49.40625,202.18945 l -6.732422,9.56055 -6.769531,-3.41016 c -7.298282,-3.68133 -12.034413,-4.29123 -15.019531,-1.92578 -2.349181,1.86147 -5.679427,12.13365 -10.9863285,33.88672 -7.448255,30.53059 -10.19772681,57.90645 -6.9355469,69.14063 2.348355,8.08725 8.2805214,15.83631 14.5468754,19.01171 5.19735,2.6337 5.710003,3.29195 6.384765,8.21485 0.596859,4.35455 3.281106,13.06393 9.232422,26.07226 4.821599,10.539 18.820102,22.66944 25.314453,28.34766 14.98046,13.09796 35.690193,22.3956 61.347654,27.5332 15.65013,3.13376 42.70856,5.86756 58.11914,5.875 7.90295,0.004 4.5315,0.36922 18.7793,0.73438 13.25724,0.33977 19.14932,2.13654 26.62891,-0.37695 29.13735,-11.09391 40.23648,-8.79102 74.71093,0.31836 12.78032,3.377 33.67399,-0.66993 37.69141,-0.66993 6.5825,0 20.34297,-0.95429 31.67773,-2.10742 3.80416,-0.38691 7.3333,-0.79652 10.22852,-1.19922 30.27327,-4.21083 55.28015,-13.14168 71.51172,-25.54101 5.49892,-4.2006 17.56388,-19.68449 25.875,-32.10547 -0.19681,0.57483 -0.39446,1.14729 -0.59375,1.71679 l 9.66797,-14.98632 0.002,-0.002 v -0.002 c 1.1969,-4.03353 2.33552,-8.11957 3.38477,-12.17383 1.89899,-7.33777 2.52932,-8.37702 5.55468,-9.18359 6.65509,-1.77421 12.45591,-9.44772 15.77735,-20.87305 1.57876,-5.43108 1.87796,-9.63971 1.34375,-18.94531 -1.21086,-21.09167 -13.69931,-76.8776 -18.36328,-82.03125 -2.70031,-2.98386 -7.02582,-2.66675 -14.70118,1.08203 -3.61075,1.7636 -6.9118,3.23797 -7.33593,3.27149 h -0.008 c -0.003,-0.002 -0.01,-0.006 -0.0137,-0.008 h -0.002 c -0.54727,-0.1556 -3.85732,-4.26009 -7.4668,-9.29101 -9.58656,-13.36166 -16.61948,-21.21297 -25.31445,-28.26758 -24.11584,-19.56626 -53.06988,-28.34453 -106.08203,-32.17188 -9.19102,-0.66355 -19.45426,-1.50908 -22.80664,-1.875 l -6.09375,-0.66211 -0.64649,-37.83398 c -0.35475,-20.808465 -0.048,-20.695909 -0.52343,-21.869141 -2.20024,-5.428849 -9.96643,-6.136494 -63.51368,-5.757812 z m 19.35352,4.732422 h 0.002 c 18.27797,-0.0074 36.55726,0.601437 38.24024,1.832031 2.15368,1.574806 1.77659,7.127664 1.77539,32.0332 l 0.48633,48.47266 h -41.25196 c -22.69053,0 -41.52492,-0.42282 -41.84765,-0.94531 -0.32311,-0.52247 -0.21242,-22.32905 0.24023,-48.45117 1.01403,-27.147635 3.79216,-26.105465 5.98242,-27.707036 1.68463,-1.231263 18.09508,-5.228047 36.37305,-5.234375 z m -48.21484,66.568361 0.34765,9.97461 0.34961,9.97461 46.16602,0.3125 46.16601,0.3125 0.82227,-6.57227 c 0.45152,-3.61428 0.58069,-8.18258 0.29101,-10.15625 l -0.52343,-3.5918 7.84375,0.0156 c 9.58984,0.0186 43.0471,2.92953 54.18554,4.7168 39.60542,6.35521 66.22632,19.85767 85.1875,43.20117 18.61849,22.92165 27.20794,40.5896 33.85743,69.64258 3.16638,13.83464 4.44039,45.00953 2.42187,59.20898 -1.05281,7.40602 -2.9731,16.11846 -5.41602,24.98828 -12.12957,27.49646 -32.09893,47.33744 -58.43164,57.98828 -24.22394,9.79785 -50.28841,13.58155 -102.06836,14.79688 l -19.70312,0.45703 -9.125,-2.1875 c -15.45477,-3.71505 -22.84537,-4.73364 -34.29297,-4.71875 -12.62182,0.0186 -19.57525,0.91227 -33.18359,4.25977 v -0.008 c -10.13782,2.49365 -10.27199,2.50649 -25.90235,2.38477 -8.64226,-0.0674 -17.02155,-0.22453 -18.62695,-0.34961 -1.60537,-0.12506 -9.16167,-0.58423 -16.78711,-1.02344 C 111.38191,415.69877 79.982651,405.11032 57.386719,383.34375 48.400244,374.68711 38.94586,363.02172 32.617188,350.83203 29.506025,340.3902 27.08738,329.92319 25.791016,320.80469 24.889218,314.46024 24.618959,304.34502 25.064453,293.35156 26.915093,247.68606 42.679586,210.96672 72.357422,183.17773 97.908357,159.253 130.04316,149.36804 193.8457,145.80078 Z M 26.039062,209.0293 c 1.836039,0.0525 4.630185,1.2627 9.021485,3.78125 l 4.994141,2.86523 -3.960938,8.65039 c -5.483979,11.97367 -9.47615,24.41784 -12.751953,39.76172 -2.39251,11.20634 -2.791755,16.46945 -2.806641,37.22461 -0.01121,13.29424 -0.13589,24.1661 -0.277344,24.16602 -0.141452,-8e-5 -2.086527,-1.60363 -4.324218,-3.56836 -4.581553,-4.02267 -8.8248061,-12.88694 -9.8886721,-20.64844 -0.985169,-7.18765 1.3024605,-26.78081 5.5761721,-47.67188 3.835133,-18.74721 10.065859,-41.10591 12.148437,-43.61523 0.471153,-0.5677 1.082681,-0.88866 1.91211,-0.9375 0.113912,-0.008 0.23495,-0.0108 0.357421,-0.008 z m 461.164058,0.23437 c 0.43248,0.004 0.74674,0.0827 0.91016,0.2461 2.87981,2.87978 12.80681,43.66845 15.87695,65.24414 3.26717,22.95994 1.61046,35.97694 -5.63281,44.22656 -7.61443,8.67241 -7.65179,8.60208 -7.14062,-13.69141 0.68361,-29.81285 -3.26423,-51.37604 -14.20508,-77.56054 -3.34352,-8.00189 -4.34352,-11.65296 -3.46875,-12.70704 1.90673,-2.29743 10.63277,-5.79533 13.66015,-5.75781 z M 256.08594,291.2793 c -5.49605,-0.0186 -10.19638,1.77182 -14.02344,5.35156 -7.40288,6.92456 -8.31494,11.90519 -7.96875,43.27344 0.22744,20.60887 0.31393,21.8467 1.86133,25.19922 2.92103,6.32915 7.02754,10.14928 13.36328,12.45312 7.61458,2.76892 18.2777,-0.10806 23.8457,-6.43359 5.13727,-5.8362 5.30615,-6.99464 5.35938,-36.38086 l 0.0508,-26.10157 -1.78906,-3.90429 c -3.71464,-8.11379 -9.79635,-12.54586 -18.29883,-13.33985 -0.8176,-0.0763 -1.61522,-0.11532 -2.40039,-0.11718 z m 98.28125,0.30468 c -6.73471,0.026 -10.97872,1.75526 -15.35547,6.25391 -6.23776,6.41134 -6.17188,6.01109 -6.17188,37.4707 v 27.72852 l 1.81836,3.54883 c 2.33697,4.57593 7.99599,9.65379 12.3086,11.03711 2.09438,0.67172 5.33812,0.99776 8.49804,0.84961 9.14331,-0.42838 15.43121,-4.4994 19.04102,-12.31641 l 2.11523,-4.58008 v -25.90429 c 0,-29.78062 -0.21382,-31.12858 -5.96875,-37.28126 -4.48987,-4.80002 -9.35792,-6.83643 -16.28515,-6.80664 z m -196.29297,0.0156 c -8.96067,-0.0112 -15.69159,4.24672 -19.80274,12.51953 -1.71383,3.44652 -1.7246,3.53703 -1.7246,31.18945 v 27.73047 l 2.50976,4.62305 c 2.76632,5.10235 5.47102,7.53359 10.76758,9.66992 8.04429,3.24457 19.82629,0.40604 25.4082,-6.11523 4.70585,-5.49768 5.05011,-7.95638 5.07617,-35.90821 0.026,-28.80061 -0.23929,-30.50129 -5.78711,-36.67187 -4.46709,-4.9685 -9.278,-7.02594 -16.44726,-7.03711 z m 98.51367,2.86523 c 7.67109,0 13.22164,3.46644 16.9043,10.55664 1.69809,3.26858 1.70117,3.41223 1.70117,30.28711 7e-5,25.23833 -0.089,27.18314 -1.41016,29.84571 -1.8136,3.65526 -5.26751,7.09354 -8.87695,8.83984 -1.57495,0.76198 -4.96922,1.49963 -7.5918,1.65039 -4.17462,0.23972 -5.28946,-0.007 -9.3125,-2.03515 -2.51398,-1.2682 -5.37597,-3.36056 -6.36133,-4.65235 -3.96693,-5.20085 -4.02734,-5.69698 -4.02734,-33.36523 0,-17.71406 0.27227,-26.55207 0.8711,-28.55078 1.23875,-4.13463 6.46031,-9.65494 10.64453,-11.25391 1.89516,-0.72419 5.25163,-1.32227 7.45898,-1.32227 z m 99.08789,0 c 1.03219,0.0297 2.05568,0.14442 3.06836,0.34766 1.80601,0.36332 3.54892,0.6728 3.86719,0.69141 1.59244,0.0875 7.82481,7.05794 9.22656,10.3164 1.51726,3.53064 1.58014,4.59538 1.5332,29.01563 -0.026,13.94358 -0.35428,26.41706 -0.72656,27.71484 -1.47866,5.15577 -5.96963,10.12171 -11.19531,12.375 -2.46029,1.06088 -10.24787,1.06104 -13.2832,0 -1.20402,-0.42086 -3.33551,-1.62195 -4.74024,-2.66992 -7.91661,-5.90477 -8.14925,-7.0632 -7.88086,-38.90234 l 0.2168,-25.77344 1.82617,-3.25781 c 3.45552,-6.16436 10.8626,-10.06905 18.08789,-9.85743 z m -196.51758,0.0137 c 4.20723,0.17347 8.37799,1.73371 11.72657,4.82031 1.694,1.56148 3.85813,4.55453 4.80664,6.65234 1.70584,3.77632 1.72265,4.07141 1.72265,29.35742 v 25.53516 l -1.90429,4.0625 c -1.9686,4.19754 -6.55355,8.67076 -10.38868,10.12891 -2.65301,1.00877 -10.45584,0.89173 -13.2832,-0.19727 -6.14847,-2.36898 -10.32364,-6.73341 -11.99609,-12.5332 -0.58479,-2.0311 -0.76657,-10.68495 -0.60352,-28.45703 l 0.23242,-25.54102 1.99219,-3.78711 c 3.56879,-6.76855 10.68324,-10.33006 17.69531,-10.04101 z m -0.71875,2.51562 c -6.27249,0 -14.03177,5.66247 -15.625,11.40039 -0.48842,1.75952 -0.78262,11.97031 -0.78515,26.96485 -0.004,20.24477 0.18171,24.68734 1.16406,27.57031 1.28054,3.75824 5.01298,7.42978 9.14453,9 1.40152,0.53257 4.40012,0.82291 6.98828,0.66992 5.97898,-0.35326 10.39563,-2.89981 13.14453,-7.57617 l 2.02149,-3.44532 v -26.26953 c 0,-25.74461 -0.0272,-26.33652 -1.61524,-29.30664 -2.83707,-5.30534 -8.77555,-9.00781 -14.4375,-9.00781 z m 195.76758,0.0723 c -4.12585,0.11725 -8.22381,1.91986 -11.41406,5.38086 -1.59867,1.73438 -3.25597,4.42171 -3.68555,5.96875 -0.4854,1.74897 -0.77892,12.1945 -0.77148,27.62109 0.0112,22.59653 0.12863,25.07013 1.35937,27.72851 1.71995,3.71491 4.97519,6.76649 8.57227,8.04883 8.6738,3.09214 18.07024,-0.89919 21.19922,-9.00781 1.17893,-3.05454 1.3164,-6.03224 1.3164,-27.86719 0,-27.52039 -0.10591,-28.24402 -5.01562,-33.14648 -3.28211,-3.27718 -7.43473,-4.84374 -11.56055,-4.72656 z m -98.31641,0.01 c -4.15371,0.008 -7.33516,1.35203 -10.69531,4.44922 -5.31635,4.90053 -5.49383,6.10942 -5.24219,34.99219 0.21217,24.35864 0.26395,25.14394 1.85547,28.12109 1.87282,3.50403 6.81787,7.22032 10.89649,8.17969 3.80099,0.89312 3.38846,0.88594 7.46094,0.0137 4.80526,-1.03055 8.99339,-4.1561 10.93359,-8.16406 1.51186,-3.12289 1.57446,-4.20838 1.64258,-28.95117 l 0.0664,-25.70703 -2.10156,-4.10743 c -2.66079,-5.20274 -7.20968,-8.26784 -12.97656,-8.74609 -0.63657,-0.0528 -1.24646,-0.0809 -1.83985,-0.0801 z m 98.01954,2.5293 c 1.26272,-0.0435 2.56904,0.0649 3.90234,0.3418 3.13871,0.65157 4.3274,1.383 6.73242,4.11523 1.60816,1.82699 3.17938,4.50799 3.49024,5.96875 0.31045,1.45945 0.56054,13.163 0.56054,26.00586 0,22.39359 -0.0652,23.48852 -1.57812,26.76172 -1.03099,2.23096 -2.62283,4.10654 -4.60156,5.41601 -3.30811,2.18919 -8.92218,2.96569 -12.72266,1.75977 -2.75039,-0.87275 -6.89906,-4.84567 -8.17969,-7.83008 -1.56497,-3.64731 -1.45928,-50.25308 0.12305,-54.04101 2.17545,-5.20786 6.80172,-8.30988 12.27344,-8.49805 z m -195.47071,0.3125 c 6.04096,3.2e-4 10.0578,2.70025 12.47461,8.39648 1.07046,2.52298 1.24653,6.11024 1.30274,26.9961 0.0625,23.22562 0.008,24.2015 -1.51953,27.53125 -1.14032,2.48862 -2.54867,4.06237 -5.05274,5.65039 -7.69007,4.87693 -18.24845,0.86723 -20.66992,-7.85157 -0.99341,-3.57531 -0.96975,-46.15767 0.0293,-50.50781 1.3715,-5.98362 6.93461,-10.21443 13.43554,-10.21484 z"
       sodipodi:nodetypes="ccccccccccccssssssscscssssscccccssssssccccssscccccsssccscccsccccccccccssscscccccccscscccsccccccscsssssccccsssssccsscsscccscccsccscccsccccsccsscscscscscccssssccccccsscccscsscsccscccccssccsccccscsssccsscsssccscccccccscscscscsscsscsscsccc" /></g></svg>
