<?xml version="1.0" encoding="UTF-8" standalone="no"?>
<!-- Created with Inkscape (http://www.inkscape.org/) -->

<svg
   width="512"
   height="512"
   viewBox="0 0 512 512"
   version="1.1"
   id="svg1"
   xml:space="preserve"
   inkscape:version="1.4.4 (dcaf3e7d9e, 2026-05-05)"
   sodipodi:docname="oculusquest2.svg"
   xmlns:inkscape="http://www.inkscape.org/namespaces/inkscape"
   xmlns:sodipodi="http://sodipodi.sourceforge.net/DTD/sodipodi-0.dtd"
   xmlns="http://www.w3.org/2000/svg"
   xmlns:svg="http://www.w3.org/2000/svg"><sodipodi:namedview
     id="namedview1"
     pagecolor="#ffffff"
     bordercolor="#000000"
     borderopacity="0.25"
     inkscape:showpageshadow="2"
     inkscape:pageopacity="0.0"
     inkscape:pagecheckerboard="0"
     inkscape:deskcolor="#d1d1d1"
     inkscape:document-units="px"
     inkscape:zoom="1.2692014"
     inkscape:cx="332.09858"
     inkscape:cy="336.82596"
     inkscape:window-width="2048"
     inkscape:window-height="1128"
     inkscape:window-x="0"
     inkscape:window-y="0"
     inkscape:window-maximized="1"
     inkscape:current-layer="layer1" /><defs
     id="defs1" /><g
     inkscape:label="Katman 1"
     inkscape:groupmode="layer"
     id="layer1"><path
       d="m 168.57527,441.19159 c -37.7222,-1.96683 -63.712,-7.39493 -81.375159,-16.99548 -33.36758,-18.13653 -54.58118,-50.025 -60.79144,-91.38223 -0.69545,-4.63118 -1.26444,-10.86039 -1.26444,-13.84267 v -5.42229 l -3.08507,2.42672 c -4.39629,3.45813 -14.6641259,3.41136 -18.1581899,-0.0825 -2.344486,-2.34453 -2.461254,-3.28699 -1.777095,-14.34313 1.128471,-18.23524 8.9788249,-57.14728 13.1735249,-65.29741 2.41214,-4.68672 7.3045,-8.00671 11.79865,-8.00671 5.48721,0 11.53918,2.74121 13.85498,6.27558 l 1.93856,2.95859 5.08343,-6.24112 c 2.79591,-3.43264 8.12301,-10.85634 11.83798,-16.49717 8.81403,-13.38321 17.52496,-22.67482 27.43288,-29.26161 25.942559,-17.24662 56.824849,-24.20739 118.213649,-26.64513 l 6.4398,-0.2556 0.80086,-37.4677 c 0.44046,-20.60725 1.12225,-39.6463 1.51507,-42.30904 1.37756,-9.3375 0.79899,-9.20905 41.4732,-9.20905 41.76966,0 41.55985,-0.0471 42.69656,9.6102 0.36332,3.08608 1.00334,22.3398 1.42241,42.78605 l 0.76197,37.17497 9.52479,0.003 c 14.95509,0.007 41.03748,2.17988 55.77393,4.64541 42.46339,7.10449 67.45189,21.59605 86.12014,49.94361 3.76302,5.71411 9.17537,13.40501 12.02745,17.09088 l 5.18556,6.70163 2.38984,-3.03818 c 6.50281,-8.26698 20.30747,-7.98459 24.69777,0.50524 4.78264,9.2486 13.19126,51.30306 13.83252,69.18119 0.32351,9.01547 0.14825,9.88316 -2.41551,11.9619 -3.87475,3.14185 -12.87772,3.04355 -16.98265,-0.18549 -2.47872,-1.94978 -3.08507,-2.07663 -3.08507,-0.64539 0,0.97971 -0.7899,7.80713 -1.75538,15.17204 -4.11622,31.40031 -14.32571,53.44986 -34.08065,73.60449 -19.97201,20.37601 -41.1307,30.08938 -74.81076,34.34351 -28.24206,3.56728 -159.46927,5.29333 -208.41411,2.74133 z m 188.50938,-6.28874 c 32.53681,-2.82326 46.43053,-5.85637 61.86916,-13.50648 30.519,-15.12278 50.6584,-41.11237 59.5412,-76.837 2.18065,-8.77022 2.58332,-13.74652 2.63747,-32.59679 0.0698,-24.29444 -0.55968,-28.68937 -7.04347,-49.17634 -5.25571,-16.60667 -5.12062,-16.40771 -9.45333,-13.92108 -4.20465,2.41315 -8.18555,1.64971 -13.14116,-2.52015 -4.57553,-3.85007 -7.95472,-9.40991 -8.9353,-14.70147 -0.64093,-3.45883 -0.26801,-4.80886 2.08426,-7.54346 l 2.86492,-3.33067 -4.40398,-3.67944 c -11.32296,-9.46004 -32.14612,-17.44233 -56.16271,-21.52915 -28.83532,-4.90686 -40.14654,-5.37023 -129.96609,-5.32381 -72.6036,0.0376 -89.26219,0.36075 -106.54875,2.06687 -39.50009,3.89881 -59.234869,9.75927 -78.740709,23.38282 -6.67188,4.65992 -8.23282,6.70466 -5.11825,6.70466 2.76908,0 4.57604,6.20709 3.22813,11.08879 -3.19281,11.56353 -17.42633,21.25504 -22.40534,15.25569 -0.8017,-0.96598 -1.88168,-1.75628 -2.39999,-1.75628 -1.36274,0 -7.77613,17.1636 -10.61754,28.41492 -3.12538,12.37557 -4.39726,46.82461 -2.22863,60.36141 4.19075,26.15902 15.97644,49.07132 34.17987,66.44844 21.45737,20.48336 42.601329,28.32294 88.200459,32.70225 23.49518,2.25649 176.54471,2.25368 202.55978,-0.003 z m -240.47064,-8.44123 c -4.55728,-2.24505 -8.3276,-7.75085 -8.33395,-12.17003 -0.002,-1.6769 1.2877,-4.44306 2.8669,-6.14706 2.3814,-2.56957 3.8895,-3.09813 8.83962,-3.09813 7.26928,0 12.23132,2.39702 15.26644,7.37476 3.17276,5.20353 2.86692,8.6249 -1.12822,12.62004 -2.74184,2.74183 -4.43013,3.41723 -8.48877,3.39587 -2.78642,-0.0146 -6.84633,-0.90361 -9.02202,-1.97545 z m 16.56278,-4.02362 c 1.8384,-2.47144 2.08093,-3.77474 1.19842,-6.43975 -1.55596,-4.69873 -7.79259,-8.6142 -13.68588,-8.59218 -5.52021,0.022 -6.82289,0.68182 -8.82382,4.47902 -5.18422,9.83823 14.56755,19.6189 21.31128,10.55291 z m -14.79083,-2.25532 c -3.82425,-3.00817 -3.94727,-6.32131 -0.32279,-8.6961 6.11482,-4.00657 14.935,4.66598 9.88318,9.71776 -2.11887,2.11887 -6.10997,1.69235 -9.56028,-1.02166 z m 8.62358,-2.60801 c 0,-2.18398 -2.45673,-4.3322 -4.95436,-4.3322 -2.72095,0 -4.11173,3.41409 -1.94871,4.78369 2.46929,1.56354 6.90307,1.27354 6.90307,-0.45149 z m 251.64604,7.46653 c -5.08471,-5.08472 -4.68697,-9.78762 1.31024,-15.49264 4.37185,-4.15882 5.24242,-4.49932 11.41595,-4.46493 6.99852,0.0391 9.49652,1.19603 11.76083,5.44741 2.10155,3.94585 1.64031,6.88457 -1.70452,10.85971 -6.68465,7.94423 -16.85851,9.5744 -22.7825,3.65045 z m 16.36123,-1.19923 c 2.72862,-1.39203 5.05785,-3.70114 5.98063,-5.92889 4.33606,-10.4682 -13.49203,-14.6378 -21.12061,-4.93965 -3.17051,4.03067 -2.89303,7.83025 0.78305,10.72182 3.86215,3.03801 8.59477,3.08635 14.35693,0.14679 z m -10.91863,-3.07251 c -2.46671,-2.46673 -2.31729,-4.70789 0.50181,-7.52699 3.1306,-3.13061 9.03345,-3.54613 10.8126,-0.76114 4.02238,6.29651 -5.97939,13.62311 -11.31441,8.28813 z m 8.65531,-3.37769 c 1.71674,-2.06855 0.64659,-4.1493 -2.1341,-4.1493 -2.40528,0 -4.84854,2.18305 -4.84854,4.3322 0,2.06961 5.22683,1.93272 6.98264,-0.18294 z M 222.76607,224.05672 c -2.39425,-5.2548 2.51936,-10.16841 7.77416,-7.77419 3.30615,1.50643 4.21353,6.78678 1.61304,9.38724 -2.60045,2.60049 -7.88081,1.69312 -9.3872,-1.61305 z m 6.99068,-0.67385 c 1.83173,-1.83173 -0.31949,-5.81726 -2.65606,-4.92066 -2.58136,0.99055 -2.1062,6.27087 0.56429,6.27087 0.40782,0 1.34915,-0.6076 2.09177,-1.35021 z m 6.66738,0.83547 c -1.83844,-2.80585 -1.83844,-3.18986 0,-5.9957 1.43062,-2.18336 2.79464,-2.89914 5.02056,-2.63445 4.06656,0.48355 4.97233,3.29056 1.06179,3.29056 -1.62561,0 -3.29553,0.54998 -3.71095,1.22216 -1.21638,1.96814 1.64937,4.44919 4.32954,3.7483 1.75712,-0.45948 2.30191,-0.17526 1.91567,0.99904 -0.29686,0.90262 -1.91512,1.80466 -3.59605,2.00454 -2.22592,0.26472 -3.58994,-0.45106 -5.02056,-2.63445 z m 12.64815,2.10883 c -1.74661,-0.73795 -2.01962,-10.96102 -0.29284,-10.96102 0.64396,0 1.17086,1.4753 1.17086,3.27844 0,1.80313 0.59109,3.8695 1.31355,4.59196 2.25948,2.25948 4.54077,0.30124 4.54077,-3.89761 0,-2.18503 0.52689,-3.97279 1.17086,-3.97279 0.64399,0 1.17089,2.10758 1.17089,4.68346 0,2.57592 0.13182,5.07865 0.29284,5.56163 0.34469,1.03444 -7.24083,1.61421 -9.36693,0.71593 z m 12.5868,-7.44842 c 0,-4.68346 0.50182,-8.19603 1.17086,-8.19603 0.66909,0 1.17091,3.51257 1.17091,8.19603 0,4.68347 -0.50182,8.19608 -1.17091,8.19608 -0.66904,0 -1.17086,-3.51261 -1.17086,-8.19608 z m 6.63493,7.41549 c -1.2468,-1.24682 -0.90106,-10.92809 0.3903,-10.92809 0.64396,0 1.17086,1.81303 1.17086,4.02895 0,2.21589 0.54997,4.36882 1.22215,4.78424 2.01061,1.24264 4.63217,-1.83837 4.63217,-5.44394 0,-1.85308 0.52689,-3.36925 1.17086,-3.36925 0.64399,0 1.17086,2.63448 1.17086,5.85435 v 5.85433 h -4.48831 c -2.46856,0 -4.83959,-0.35126 -5.26889,-0.78059 z m 12.72516,-0.32425 c -0.81894,-1.32506 -0.0745,-1.62903 3.17909,-1.29807 1.12696,0.11462 2.04902,-0.35163 2.04902,-1.03605 0,-0.68445 -0.72582,-1.24447 -1.61294,-1.24447 -0.88711,0 -2.26886,-0.79031 -3.07053,-1.75629 -2.02131,-2.43551 0.61753,-5.50645 4.32694,-5.03538 2.85595,0.36258 3.80198,2.57084 1.22158,2.8513 -3.42188,0.37193 -3.61964,0.70921 -0.86505,1.47542 2.10627,0.5859 2.92718,1.62031 2.92718,3.68861 0,2.36903 -0.64973,2.93744 -3.69544,3.23309 -2.03251,0.19718 -4.03943,-0.19791 -4.45985,-0.87816 z M 17.572431,312.31734 c 4.23858,-1.93122 7.11774,-8.23084 8.1156,-17.75693 0.89821,-8.57451 4.23749,-22.94381 9.25107,-39.80846 4.65279,-15.65088 4.1229,-18.62939 -3.58852,-20.17167 -3.29211,-0.65842 -3.60301,-0.40965 -4.74751,3.79837 -10.64901,39.1535 -18.7638399,73.60846 -17.5220729,74.39745 2.0543529,1.30535 4.9648029,1.14808 8.4914329,-0.45876 z m 485.700749,0.71926 c 1.0616,-0.4074 1.48725,-1.44033 1.05624,-2.5635 -0.39702,-1.03466 -4.98325,-18.50467 -10.1916,-38.82229 -10.17054,-39.675 -10.29227,-39.93943 -16.51159,-35.8644 -3.90163,2.55649 -3.7616,7.58085 0.58992,21.1654 3.58961,11.20607 7.49143,29.16949 8.78657,40.4522 1.3665,11.9041 8.39321,18.65536 16.27046,15.63259 z m -0.44113,-26.87127 c -4.04429,-27.30932 -11.89169,-54.58888 -14.8518,-51.62876 -0.35383,0.35382 12.99375,56.22701 15.65039,65.51291 1.57014,5.4882 1.25251,-0.0329 -0.79859,-13.88415 z M 18.839221,258.7579 c 3.43705,-13.16318 5.98577,-24.1965 5.66379,-24.51848 -1.50968,-1.50967 -4.58974,4.05017 -7.16134,12.92701 -3.15025,10.87431 -8.0485999,36.43092 -9.0529899,47.23321 l -0.653234,7.02522 2.4772909,-9.36693 c 1.362513,-5.15184 5.289453,-20.13681 8.726483,-33.30003 z m 41.71827,-14.95422 c 4.51664,-4.29237 6.77467,-8.78429 6.96534,-13.85614 0.34323,-9.12828 -5.22328,-8.05379 -13.66514,2.63772 -5.63112,7.13173 -7.20132,10.79194 -5.98709,13.95612 1.09528,2.85423 8.4795,1.2608 12.68689,-2.7377 z m -7.70276,-2.28812 c -1.75885,-1.75884 -0.55769,-5.35138 3.13735,-9.38336 4.37795,-4.77716 7.79074,-4.73996 7.79074,0.0851 0,5.46063 -7.97777,12.2487 -10.92809,9.29837 z m 5.18582,-3.45251 c 1.35803,-1.63633 1.27204,-1.83365 -0.63775,-1.46359 -1.21409,0.23515 -2.42672,1.08641 -2.69473,1.89136 -0.69549,2.0887 1.47527,1.81007 3.33248,-0.42777 z m 3.40051,-5.20295 c 0,-0.60598 -0.79031,-1.10177 -1.75629,-1.10177 -1.81062,0 -2.32616,1.38158 -1.00756,2.70021 0.93545,0.93542 2.76385,-0.12196 2.76385,-1.59844 z m 403.191049,12.73213 c 0.90259,-1.44193 0.77683,-2.8418 -0.46731,-5.2021 -2.45823,-4.66353 -13.95463,-16.82784 -15.90385,-16.82784 -0.9104,0 -2.24838,1.30168 -2.9733,2.89268 -1.9031,4.17691 1.49302,12.28187 7.37178,17.59298 5.08084,4.59025 9.69362,5.18521 11.97268,1.54428 z m -10.43347,-4.19217 c -4.58178,-3.18175 -6.77696,-11.4522 -3.38518,-12.75377 3.61094,-1.38564 10.7052,7.82867 9.14924,11.88336 -0.71604,1.86604 -3.68477,2.31432 -5.76406,0.87041 z m 2.99502,-3.75063 c 0,-1.58501 -0.55793,-2.0909 -1.78619,-1.61959 -1.37738,0.52858 -1.47856,1.0561 -0.44204,2.30499 1.80456,2.17437 2.22823,2.04405 2.22823,-0.6854 z m -3.39105,-5.06705 c -1.50281,-1.50278 -3.02676,-0.3414 -1.91418,1.45888 0.43098,0.69735 1.31998,0.93637 1.97556,0.5312 0.79969,-0.49425 0.7795,-1.14916 -0.0614,-1.99008 z M 78.581491,204.79158 C 99.230481,192.65832 131.7557,186.75536 187.1997,185.07857 l 24.47876,-0.74033 -0.26509,-9.93647 c -0.1457,-5.46509 -0.38593,-10.05746 -0.53373,-10.20522 -0.14788,-0.14789 -9.72678,0.24865 -21.28659,0.88078 -52.70159,2.88246 -81.80356,10.87431 -104.734729,28.76185 -5.58186,4.35411 -16.28747,15.67268 -14.82395,15.67268 0.28262,0 4.12881,-2.12409 8.54705,-4.72028 z m 354.264459,-5.91734 c -7.96187,-7.57037 -12.07594,-10.396 -22.83187,-15.68133 -24.63229,-12.10399 -43.03413,-15.66027 -97.17637,-18.77977 l -12.63358,-0.7279 0.33958,10.32648 0.33957,10.32652 26.34448,0.7725 c 52.04517,1.52602 83.36014,7.28826 105.96333,19.49813 4.50783,2.43504 8.45952,4.21865 8.7815,3.96355 0.32204,-0.25523 -3.7849,-4.6193 -9.12645,-9.69818 z M 224.1914,182.95012 c 0,-1.16811 -4.92111,-6.22249 -6.05844,-6.22249 -1.62246,0 -1.07782,3.23427 0.87316,5.18528 1.85641,1.85637 5.18528,2.52228 5.18528,1.03721 z m 1.75629,-6.22249 c -7.00598,-7.07985 -8.78147,-8.21247 -8.78147,-5.60183 0,2.37268 10.8693,12.62701 13.38427,12.62701 1.84012,0 0.84285,-1.52208 -4.6028,-7.02518 z m 12.64501,5.4216 c -1.1775,-2.0166 -19.74425,-19.472 -20.71176,-19.472 -0.39311,0 -0.71472,0.72378 -0.71472,1.60837 0,2.12222 18.37007,19.46721 20.61777,19.46721 1.15248,0 1.42707,-0.54449 0.80871,-1.60358 z m -4.70709,-12.48264 c -13.65324,-13.37273 -16.71939,-15.69459 -16.71939,-12.66082 0,2.56975 25.77595,26.74912 28.47498,26.71123 1.98688,-0.0292 -0.61967,-3.14324 -11.75559,-14.05041 z m 20.74829,13.70403 c 0,-0.71991 -35.20926,-35.32863 -36.33929,-35.71947 -0.62063,-0.21471 -1.12839,0.37412 -1.12839,1.30844 0,2.22257 33.43428,34.79322 35.71578,34.79322 0.96358,0 1.7519,-0.17197 1.7519,-0.38219 z m 6.32851,-2.25226 c -1.22677,-1.44894 -2.6223,-2.92692 -3.10118,-3.28436 -0.47892,-0.35746 -8.41122,-8.05556 -17.62738,-17.10687 -16.83923,-16.53805 -21.93858,-20.66892 -21.85373,-17.70307 0.022,0.82762 3.05331,4.43042 6.73248,8.00623 25.07803,24.37357 34.27648,32.72252 36.05183,32.72252 1.86419,0 1.84783,-0.21324 -0.20192,-2.63445 z m 8.66644,0.53833 c -0.8415,-1.15285 -4.95477,-5.2728 -9.14062,-9.15548 -4.18585,-3.88264 -9.47929,-8.86692 -11.7632,-11.07611 -16.38828,-15.85222 -30.54854,-28.09945 -30.20061,-26.12054 0.53264,3.02956 47.82343,48.33557 50.51897,48.3987 1.82335,0.0428 1.9042,-0.23989 0.58546,-2.04657 z m 7.6534,-0.53833 c -1.12703,-1.44894 -9.18669,-9.32939 -17.91037,-17.51217 -8.72366,-8.18275 -19.81288,-18.58398 -24.64269,-23.11384 -5.31173,-4.98181 -9.79302,-8.24036 -11.34147,-8.24686 -1.91424,-0.007 2.46543,4.78852 17.36303,19.01579 25.86928,24.70536 34.69685,32.49153 36.83713,32.49153 1.45354,0 1.40272,-0.43813 -0.30563,-2.63445 z m 7.76756,-0.10806 c -1.59531,-1.50839 -11.60292,-11.12414 -22.23907,-21.36829 -25.84836,-24.89562 -28.74209,-27.40721 -31.57689,-27.40721 -1.85327,0 -0.41472,1.86696 6.08965,7.90335 4.68387,4.34681 14.57822,13.72072 21.98749,20.83082 19.29883,18.51975 24.27548,22.78393 26.59079,22.78393 1.70834,0 1.56686,-0.45547 -0.85197,-2.7426 z m -3.50509,-10.83839 c -21.81014,-22.02925 -39.63127,-37.93774 -42.49235,-37.93186 -2.05837,0.003 -1.0592,1.33594 5.04375,6.72234 4.18585,3.69441 8.9755,8.03888 10.64364,9.65437 1.66818,1.61552 10.45461,10.18203 19.52542,19.03671 9.0708,8.85468 17.44477,16.09942 18.60887,16.09942 1.39028,0 -2.49711,-4.65999 -11.32933,-13.58098 z m 14.06949,7.76572 c 0,-1.48922 -9.08457,-11.78708 -17.88476,-20.27347 -3.86089,-3.72319 -6.66837,-7.12085 -6.2389,-7.55037 0.42951,-0.42951 5.64776,4.06569 11.59615,9.98932 5.94835,5.92362 11.20048,10.77023 11.67136,10.77023 2.87355,0 -1.1078,-4.93606 -16.77134,-20.79321 -15.59108,-15.78379 -18.0596,-17.83679 -21.36828,-17.77114 -3.21228,0.0636 -3.39544,0.21398 -1.29628,1.06289 2.77835,1.12368 14.81062,14.19681 13.90241,15.10503 -0.32681,0.3268 -3.08482,-1.77838 -6.12888,-4.67822 -7.09944,-6.76315 -13.69222,-11.5639 -15.88044,-11.5639 -0.94633,0 2.03909,3.5565 6.63427,7.90335 4.59517,4.34681 15.47692,14.87572 24.18164,23.39757 15.26883,14.94802 17.58305,16.84354 17.58305,14.40192 z M 284.08507,148.9115 c -13.84943,-14.85188 -16.18662,-16.93151 -18.4894,-16.452 -1.07597,0.2242 4.15911,6.27492 13.81816,15.97151 8.5527,8.58597 15.74176,15.03671 15.97563,14.33499 0.23406,-0.70169 -4.85307,-6.93623 -11.30439,-13.8545 z m 10.69943,4.40614 c -0.96094,-3.67466 -18.98559,-21.08285 -21.82941,-21.08285 -1.90055,0 0.22055,2.70138 9.19415,11.70865 6.41561,6.43976 12.02044,11.70865 12.45521,11.70865 0.43481,0 0.51579,-1.05051 0.18002,-2.33445 z m -2.66924,-11.94788 c -2.58764,-3.49998 -2.58826,-3.51236 -0.13583,-2.73395 1.90401,0.6043 2.46377,0.28517 2.46377,-1.40448 0,-3.00006 -2.25619,-4.99654 -5.64645,-4.99654 -2.40842,0 -2.6129,0.26912 -1.35529,1.78459 2.28443,2.75254 0.70031,3.16178 -2.10872,0.54475 -1.37518,-1.28113 -3.42916,-2.32934 -4.56442,-2.32934 -1.409,0 0.33812,2.42373 5.50411,7.63614 7.43684,7.50354 10.9481,8.40427 5.84268,1.49883 z m 1.91027,-37.76536 c -0.4561,-15.1681 -1.27281,-26.21824 -1.99086,-26.93735 -0.77084,-0.77194 -13.7921,-1.35518 -35.4933,-1.58978 -27.70261,-0.29942 -34.5276,-0.0671 -35.58858,1.21127 -0.81868,0.98639 -1.62484,11.13871 -2.1418,26.97248 l -0.82905,25.39073 15.69155,0.32789 c 8.63033,0.18038 25.91412,0.33119 38.40844,0.3352 l 22.71692,0.007 z"
       style="fill:#000000;stroke-width:3.6514"
       id="path1" /></g></svg>
